
<svg width="60px" height="54px" viewBox="0 0 60 54" version="1.1" xmlns="http://www.w3.org/2000/svg" xmlns:xlink="http://www.w3.org/1999/xlink">
    <!-- Generator: Sketch 46.2 (44496) - http://www.bohemiancoding.com/sketch -->
    <desc>Created with Sketch.</desc>
    <defs></defs>
    <g id="Welcome" stroke="none" stroke-width="1" fill="none" fill-rule="evenodd" opacity="0.568217844">
        <g id="Mobile-Over-Portrait-View" transform="translate(-90.000000, -2344.000000)" fill-rule="nonzero" fill="#000000">
            <g id="Connection" transform="translate(90.000000, 2344.000000)">
                <g id="Layer_1">
                    <path d="M30.0235535,3.41210884 C31.1281152,3.41240439 32.2131165,3.64660149 33.1694828,4.09115646 L52.6532719,13.1380952 C54.5996059,14.0420222 55.7987695,15.7124181 55.7992012,17.5202721 L55.7992012,35.6183673 C55.7987695,37.4262214 54.5996059,39.0966172 52.6532719,40.0005442 L33.1694828,49.0517007 C31.222775,49.9558014 28.824332,49.9558014 26.8776242,49.0517007 L7.39383513,40.0047619 C5.44750113,39.1008349 4.24833748,37.4304391 4.24790579,35.622585 L4.24790579,17.5244898 C4.24833748,15.7166358 5.44750113,14.0462399 7.39383513,13.1423129 L26.8776242,4.09115646 C27.8339905,3.64660149 28.9189918,3.41240439 30.0235535,3.41210884 L30.0235535,3.41210884 Z M30.0235535,0.0379591837 C28.1827762,0.0380243357 26.3744511,0.427865715 24.7803379,1.16829932 L5.2965489,10.2194558 C2.05211824,11.726252 0.0534285054,14.5108974 0.0533333333,17.5244898 L0.0533333333,35.6183673 C0.0534285054,38.6319597 2.05211824,41.4166052 5.2965489,42.9234014 L24.7803379,51.9745578 C28.024851,53.4813923 32.022256,53.4813923 35.2667691,51.9745578 L54.7505581,42.927619 C57.9949888,41.4208229 59.9936785,38.6361774 59.9937737,35.622585 L59.9937737,17.5244898 C59.9936785,14.5108974 57.9949888,11.726252 54.7505581,10.2194558 L35.2667691,1.16829932 C33.6726559,0.427865715 31.8643308,0.0380243357 30.0235535,0.0379591837 Z" id="Shape"></path>
                    <path d="M48.374808,18.2583673 C47.0001858,18.7480734 45.5421219,19.0693711 44.0491551,19.2115646 C45.6213328,18.4539253 46.7972574,17.2621512 47.3576242,15.8585034 C45.8793464,16.5634363 44.2621035,17.0598415 42.5758116,17.3262585 C40.2426658,15.3276118 36.5321101,14.8378032 33.5272564,16.1318122 C30.5224028,17.4258212 28.9716787,20.1813452 29.7456631,22.8514286 C23.6912152,22.6081426 18.0498775,20.3085109 14.225745,16.524898 C12.2290907,19.2920559 13.2480326,22.8309308 16.5537327,24.6102041 C15.3587021,24.5793508 14.1901723,24.3190499 13.1456426,23.8510204 C13.1456426,23.8763265 13.1456426,23.9016327 13.1456426,23.9269388 C13.1442812,26.8117355 15.6708323,29.2975187 19.1858269,29.8696599 C18.0763552,30.1129468 16.9124301,30.1490127 15.78298,29.975102 C16.7778173,32.4355394 19.6034703,34.1174085 22.8193753,34.1632653 C20.1518144,35.848063 16.8570259,36.7617227 13.4654788,36.7571429 C12.8667274,36.7643395 12.2679679,36.7432147 11.672299,36.6938776 C15.1132132,38.4721592 19.1175146,39.4165254 23.2073733,39.4142857 C37.0599488,39.4142857 44.6311521,30.1859864 44.6311521,22.1808163 C44.6311521,21.9193197 44.6311521,21.6578231 44.6311521,21.3963265 C46.1007212,20.5374066 47.3683963,19.4748322 48.374808,18.2583673 L48.374808,18.2583673 Z" id="Shape"></path>
                </g>
            </g>
        </g>
    </g>
</svg>
